#!OML:ASF F:\VICON\USERDATA\INSTALL\rory3\rory3.ASF
:FULLY-SPECIFIED
:DEGREES
1610
root -10.0292 19.9321 -1.30694 -44.71 -79.8014 44.5705
lowerback 4.78263 1.23556 -4.33438
upperback -3.24148 1.13126 -2.55922
thorax -6.10314 0.657401 -0.349544
lowerneck -17.6506 -1.01403 -7.78772
upperneck -9.84335 -0.409328 4.50347
head -0.169956 -0.128994 2.82019
rclavicle 9.08974e-015 8.5291e-015
rhumerus 103.244 -17.2801 -58.0531
rradius 17.9125
rwrist 1.45707
rhand -28.3462 -11.1425
rfingers 7.12502
rthumb -1.72024 -41.1154
lclavicle 9.08974e-015 8.5291e-015
lhumerus 100.161 24.1702 54.2028
lradius 17.4389
lwrist -1.54578
lhand -9.5038 29.5989
lfingers 7.12502
lthumb 16.4614 58.9205
rfemur -10.6742 16.8664 16.0401
rtibia 37.5292
rfoot 3.16264 -13.8267
rtoes -12.2011
lfemur -0.05663 -5.52512 -21.0109
ltibia 32.003
lfoot 3.51794 2.1281
ltoes -23.9542
1611
root -10.0434 19.974 -1.32568 -44.7918 -79.4893 44.7204
lowerback 4.68973 1.2227 -4.46455
upperback -3.27905 1.09786 -2.68161
thorax -6.08994 0.642001 -0.399783
lowerneck -17.6813 -0.940393 -7.39879
upperneck -9.73574 -0.385157 4.08961
head -0.135849 -0.133879 2.60542
rclavicle 1.95306e-014 5.49888e-014
rhumerus 103.231 -17.1852 -58.5199
rradius 17.6396
rwrist 1.71158
rhand -28.3952 -10.4171
rfingers 7.12502
rthumb -1.76764 -40.3896
lclavicle 1.95306e-014 5.49888e-014
lhumerus 99.9078 24.1203 53.8119
lradius 17.5257
lwrist -1.10519
lhand -9.45856 29.5561
lfingers 7.12502
lthumb 16.505 58.8741
rfemur -10.6255 17.1663 15.8021
rtibia 37.2184
rfoot 3.57466 -14.515
rtoes -11.0885
lfemur 0.139027 -5.34971 -21.0071
ltibia 32.055
lfoot 3.92971 2.44211
ltoes -22.4436
1612
root -10.0588 20.0196 -1.34177 -44.9211 -79.1788 44.9269
lowerback 4.54896 1.2088 -4.57431
upperback -3.27287 1.06854 -2.83291
thorax -6.00205 0.625633 -0.48983
lowerneck -17.8005 -0.964184 -7.13008
upperneck -9.70039 -0.46161 3.89018
head -0.103431 -0.183048 2.48315
rclavicle 2.90101e-014 1.12562e-014
rhumerus 103.276 -17.108 -58.9761
rradius 17.335
rwrist 2.45145
rhand -29.7633 -12.2589
rfingers 7.12502
rthumb -3.08886 -42.2162
lclavicle 2.90101e-014 1.12562e-014
lhumerus 99.4137 24.3458 52.7789
lradius 17.7174
lwrist -0.3106
lhand -9.5222 29.6366
lfingers 7.12502
lthumb 16.4437 58.9597
rfemur -10.5885 17.3736 15.5235
rtibia 36.8608
rfoot 4.42032 -14.8871
rtoes -10.9734
lfemur 0.362847 -5.25151 -20.9971
ltibia 32.13
lfoot 4.24606 2.92877
ltoes -19.1542
1613
root -10.0742 20.0654 -1.35581 -44.8131 -78.8772 44.8212
lowerback 4.50452 1.18211 -4.63939
upperback -3.27822 1.02366 -2.92075
thorax -5.98127 0.60285 -0.539761
lowerneck -17.7708 -1.04691 -7.28126
upperneck -9.73814 -0.54281 3.99031
head -0.114438 -0.217096 2.54094
rclavicle -1.64277e-014 2.26118e-014
rhumerus 103 -17.2634 -58.6427
rradius 17.2551
rwrist 2.36901
rhand -30.2609 -14.0797
rfingers 7.12502
rthumb -3.56938 -44.0296
lclavicle -1.64277e-014 2.26118e-014
lhumerus 99.1555 24.4126 52.1699
lradius 17.7009
lwrist -0.117268
lhand -9.35123 29.563
lfingers 7.12502
lthumb 16.6083 58.8724
rfemur -10.461 17.5655 15.3271
rtibia 36.4957
rfoot 5.4204 -15.2223
rtoes -11.3202
lfemur 0.690975 -5.24449 -20.9889
ltibia 32.1893
lfoot 4.61884 3.38486
ltoes -17.4522
1614
root -10.087 20.1085 -1.37001 -44.6376 -78.6315 44.6889
lowerback 4.4775 1.11755 -4.6918
upperback -3.33954 0.927051 -2.97235
thorax -6.02866 0.556305 -0.555654
lowerneck -17.7886 -1.06692 -7.56791
upperneck -9.6473 -0.509529 4.16663
head -0.079924 -0.188232 2.65748
rclavicle -1.05604e-016 3.34207e-014
rhumerus 103.043 -16.9872 -59.0852
rradius 17.0099
rwrist 3.12428
rhand -29.331 -13.614
rfingers 7.12502
rthumb -2.67138 -43.577
lclavicle -1.05604e-016 3.34207e-014
lhumerus 98.8945 24.5048 51.6484
lradius 17.6214
lwrist 0.121318
lhand -9.14678 29.3125
lfingers 7.12502
lthumb 16.8051 58.6053
rfemur -10.399 17.9081 15.1364
rtibia 36.1283
rfoot 6.09862 -15.8823
rtoes -10.2816
lfemur 0.925967 -4.92571 -20.9057
ltibia 32.2491
lfoot 5.14191 3.69242
ltoes -18.7108
1615
root -10.0999 20.1493 -1.38623 -44.5827 -78.3781 44.7468
lowerback 4.39569 1.02488 -4.81553
upperback -3.40866 0.789687 -3.03327
thorax -6.0532 0.491796 -0.536563
lowerneck -18.0144 -1.14059 -7.96607
upperneck -9.49389 -0.511112 4.51787
head 0.0139677 -0.171069 2.85598
rclavicle 9.49507e-015 6.32384e-014
rhumerus 103.152 -16.6738 -59.6028
rradius 16.8388
rwrist 3.72306
rhand -28.5782 -12.7748
rfingers 7.12502
rthumb -1.94436 -42.7457
lclavicle 9.49507e-015 6.32384e-014
lhumerus 98.6162 24.6338 51.1207
lradius 17.6472
lwrist 0.532962
lhand -9.0765 29.4968
lfingers 7.12502
lthumb 16.8728 58.7838
rfemur -10.434 18.2547 14.8638
rtibia 35.7738
rfoot 6.5638 -16.64
rtoes -8.38467
lfemur 1.05364 -4.36213 -20.7803
ltibia 32.2894
lfoot 5.77338 3.92074
ltoes -19.7406
1616
root -10.1139 20.1853 -1.3991 -44.4544 -77.9579 44.6509
lowerback 4.35984 0.921225 -5.03711
upperback -3.41489 0.633668 -3.06529
thorax -6.03884 0.422252 -0.430805
lowerneck -18.2054 -1.21286 -8.23962
upperneck -9.41028 -0.540495 4.69675
head 0.0784043 -0.174509 2.97018
rclavicle -2.20006e-014 1.94933e-014
rhumerus 103.221 -16.5602 -59.8027
rradius 16.7872
rwrist 3.41613
rhand -28.9844 -12.6358
rfingers 7.12502
rthumb -2.33662 -42.6027
lclavicle -2.20006e-014 1.94933e-014
lhumerus 98.517 24.6921 51.0113
lradius 17.6804
lwrist 0.860097
lhand -8.93145 29.8882
lfingers 7.12502
lthumb 17.0124 59.1632
rfemur -10.3515 18.3443 14.5177
rtibia 35.4556
rfoot 7.2292 -17.0901
rtoes -7.87133
lfemur 1.26315 -4.04129 -20.7996
ltibia 32.2773
lfoot 6.43807 4.04137
ltoes -19.7973
1617
root -10.1287 20.2201 -1.4068 -44.0024 -77.3989 44.2291
lowerback 4.33224 0.819808 -5.24325
upperback -3.41217 0.478324 -3.14478
thorax -6.01833 0.350678 -0.383401
lowerneck -18.2272 -1.22857 -8.22899
upperneck -9.46581 -0.565373 4.61223
head 0.0635957 -0.18877 2.93707
rclavicle 2.69738e-014 3.90115e-014
rhumerus 103.458 -16.3059 -60.5948
rradius 16.6094
rwrist 3.83581
rhand -29.7069 -12.6018
rfingers 7.12502
rthumb -3.03437 -42.56
lclavicle 2.69738e-014 3.90115e-014
lhumerus 98.6711 24.5568 51.2693
lradius 17.6372
lwrist 0.933059
lhand -8.99915 29.8535
lfingers 7.12502
lthumb 16.9473 59.1341
rfemur -10.2313 18.353 14.111
rtibia 35.1502
rfoot 7.78883 -17.5526
rtoes -7.2526
lfemur 1.45568 -4.00373 -20.8984
ltibia 32.2473
lfoot 6.93658 4.11246
ltoes -19.2723
1618
root -10.1421 20.2564 -1.41596 -43.8186 -76.9353 44.1245
lowerback 4.3287 0.749023 -5.42247
upperback -3.45367 0.354667 -3.29895
thorax -6.05859 0.292215 -0.43343
lowerneck -18.1401 -1.20947 -8.03594
upperneck -9.63191 -0.58724 4.51504
head -0.00730837 -0.207594 2.86419
rclavicle -6.70277e-015 2.04003e-014
rhumerus 103.824 -15.8977 -61.9006
rradius 16.3131
rwrist 4.92033
rhand -30.1185 -12.6839
rfingers 7.12502
rthumb -3.43191 -42.636
lclavicle -6.70277e-015 2.04003e-014
lhumerus 98.858 24.3331 51.3505
lradius 17.5508
lwrist 0.996378
lhand -9.52585 29.9901
lfingers 7.12502
lthumb 16.4402 59.3135
rfemur -10.1788 18.5365 13.6929
rtibia 34.8452
rfoot 8.0543 -18.2278
rtoes -5.80227
lfemur 1.58805 -4.01407 -20.9947
ltibia 32.2303
lfoot 7.4991 4.34325
ltoes -19.0124
